# xmcd CD database file
#
# Track frame offsets:
#	150
#	19664
#	32987
#	52512
#	68119
#	85852
#	104317
#	125419
#	144489
#	168627
#	184567
#	204909
#	226114
#	249562
#	264189
#
# Disc length: 4059 seconds
#
# Revision: 0
# Processed by: cddbd v1.5.1PL0 Copyright (c) Steve Scherf et al.
# Submitted via: CDex 1.51
#
DISCID=ba0fd90f
DTITLE=葉加瀬太郎セレクション - ナチュラル?
DYEAR=2004
DGENRE=New Age
TTITLE0=陽のあたる家
TTITLE1=ポージ･イール
TTITLE2=ラ･ヴィ･アン･ローズ
TTITLE3=Dab-Dab
TTITLE4=ケ･セラ･セラ
TTITLE5=カミーニョ･ダス･インストレラス
TTITLE6=ヤ･ル･タン
TTITLE7=電池が切れるまで〜ロンディーノ〜
TTITLE8=恋の嵐
TTITLE9=明日があるさ
TTITLE10=Morning Star featuring Yoshito Tanaka
TTITLE11=傍にいる
TTITLE12=Migration
TTITLE13=エトピリカ
TTITLE14=流転の王妃･最後の皇帝(メインテーマ)
EXTD=YEAR: 2004
EXTT0=
EXTT1=
EXTT2=
EXTT3=
EXTT4=
EXTT5=
EXTT6=
EXTT7=
EXTT8=
EXTT9=
EXTT10=
EXTT11=
EXTT12=
EXTT13=
EXTT14=
PLAYORDER=
